<svg xmlns="http://www.w3.org/2000/svg" viewBox="0 0 367.6 128.14"><defs><style>.a{fill:#9fc538;}.b{fill:#fff;}</style></defs><polygon class="a" points="190.67 24.89 193.35 128.14 196.03 24.89 193.35 27 190.67 24.89"/><path class="a" d="M220.21,19h0a5.38,5.38,0,0,0-5.37,5.38v92.59Z" transform="translate(-2.42 -6.07)"/><path class="a" d="M171.32,19l5.38,98V24.35A5.38,5.38,0,0,0,171.32,19Z" transform="translate(-2.42 -6.07)"/><polygon class="a" points="179.16 0 184.55 117.07 184.55 11.17 193.35 18.11 202.16 11.16 202.16 117.06 207.54 0 193.35 11.19 179.16 0"/><path class="a" d="M161,25.45l5.38,84.67V30.82A5.37,5.37,0,0,0,161,25.45Z" transform="translate(-2.42 -6.07)"/><path class="a" d="M230.54,25.45h0a5.38,5.38,0,0,0-5.37,5.38v79.31Z" transform="translate(-2.42 -6.07)"/><path class="b" d="M37.42,48.91v25H31.69V53.13L23.18,73.9H16.65L8.18,53.2V73.9H2.42v-25h9.36l8.14,20.21,8.13-20.21Z" transform="translate(-2.42 -6.07)"/><path class="b" d="M62.19,68.14H48.33L45.52,73.9H39.39l12.51-25h6.69l12.57,25H65ZM50.73,63.21h9.09l-4.56-9.36Z" transform="translate(-2.42 -6.07)"/><path class="b" d="M100.21,61.21v.06c0,8.41-4.74,12.63-14.3,12.63H73.1v-25H85.91C96.11,48.91,100.21,53,100.21,61.21Zm-5.89,0c0-4.59-2.68-6.93-8.23-6.93H78.85V68.54h7.24q8.23,0,8.23-7.27Z" transform="translate(-2.42 -6.07)"/><path class="b" d="M122,68.14H108.13l-2.81,5.76H99.19l12.51-25h6.69L131,73.9h-6.13Zm-11.46-4.93h9.09l-4.56-9.36Z" transform="translate(-2.42 -6.07)"/><path class="b" d="M369.39,58.55c0-8-2.53-10.57-10.29-10.57H347.88V67.24H326.25l0-8.68c0-8-2.53-10.58-10.3-10.58h-9.3v5.76h9.58c3,0,4.25,1.18,4.25,3.83l0,9.67H302.94V73h66.39Zm-15.81,9.21v-14h5.79c3,0,4.25,1.17,4.24,3.83l0,10.19Z" transform="translate(-2.42 -6.07)"/><path class="b" d="M279.15,57.9v9.34h-6.78c-3.76,0-6.13-1.7-6.13-5.49v-8H260.5v8.6c0,7,3.52,10.63,10.64,10.63h13.74V57.66c0-2.59,1.57-3.92,4.56-3.92h3V73h5.74V48h-8.82C282.63,48,279.15,51.4,279.15,57.9Z" transform="translate(-2.42 -6.07)"/><path class="b" d="M9.81,88a2.53,2.53,0,0,1,.47,1.48A2.47,2.47,0,0,1,9.8,91,3.25,3.25,0,0,1,8.44,92a5,5,0,0,1-2,.38H3.52v4H2.42V86.55h4a4.87,4.87,0,0,1,2,.39A3.27,3.27,0,0,1,9.81,88Zm-1,2.56a1.76,1.76,0,0,0,.36-1.08,1.7,1.7,0,0,0-.37-1.08,2.35,2.35,0,0,0-1-.75,3.93,3.93,0,0,0-1.5-.26H3.52v4.2H6.26a4,4,0,0,0,1.52-.27A2.41,2.41,0,0,0,8.79,90.56Z" transform="translate(-2.42 -6.07)"/><path class="b" d="M17.31,96.44h-1.1V86.55h4a5.12,5.12,0,0,1,2,.38,3.33,3.33,0,0,1,1.37,1,2.39,2.39,0,0,1,0,2.87,3.23,3.23,0,0,1-1.32,1,5,5,0,0,1-2,.4h-.2l4,4.18H22.77l-4-4.18h-1.5v4.17Zm4.24-5.25a2.53,2.53,0,0,0,1-.73,1.67,1.67,0,0,0,.37-1.06,1.62,1.62,0,0,0-.37-1.05,2.39,2.39,0,0,0-1-.72,3.76,3.76,0,0,0-1.46-.26H17.31v4.08h2.77A4,4,0,0,0,21.55,91.19Z" transform="translate(-2.42 -6.07)"/><path class="b" d="M40.71,89a4.33,4.33,0,0,1,0,5.1,5.76,5.76,0,0,1-2.23,1.86,6.81,6.81,0,0,1-3.06.69,6.88,6.88,0,0,1-3.07-.69,5.91,5.91,0,0,1-2.23-1.86,4.37,4.37,0,0,1,0-5.1,5.91,5.91,0,0,1,2.23-1.86,6.88,6.88,0,0,1,3.07-.69,6.81,6.81,0,0,1,3.06.69A5.76,5.76,0,0,1,40.71,89Zm-1,4.66a3.66,3.66,0,0,0,0-4.22,4.71,4.71,0,0,0-1.81-1.54,5.66,5.66,0,0,0-2.5-.56,5.55,5.55,0,0,0-2.49.56,4.71,4.71,0,0,0-1.81,1.54,3.62,3.62,0,0,0-.67,2.11,3.69,3.69,0,0,0,.67,2.11,4.71,4.71,0,0,0,1.81,1.54,5.62,5.62,0,0,0,2.49.56,5.69,5.69,0,0,0,2.5-.56A4.63,4.63,0,0,0,39.73,93.61Z" transform="translate(-2.42 -6.07)"/><path class="b" d="M55.17,88a2.54,2.54,0,0,1,0,3A3.22,3.22,0,0,1,53.81,92a5,5,0,0,1-2,.38H48.88v4h-1.1V86.55h4a5,5,0,0,1,2,.39A3.24,3.24,0,0,1,55.17,88Zm-1,2.56a1.8,1.8,0,0,0,0-2.16,2.41,2.41,0,0,0-1-.75,4,4,0,0,0-1.51-.26H48.9v4.2h2.73a3.93,3.93,0,0,0,1.52-.27A2.41,2.41,0,0,0,54.16,90.56Z" transform="translate(-2.42 -6.07)"/><path class="b" d="M68,91.09v.81H62.68v3.7h5.59v.84H61.58V86.55h6.69v.86H62.68v3.68Z" transform="translate(-2.42 -6.07)"/><path class="b" d="M75.76,96.44h-1.1V86.55h4a5.16,5.16,0,0,1,2,.38A3.33,3.33,0,0,1,82,88a2.39,2.39,0,0,1,0,2.87,3.23,3.23,0,0,1-1.32,1,5,5,0,0,1-2,.4h-.2l4,4.18H81.22l-4-4.18H75.76v4.17ZM80,91.19a2.53,2.53,0,0,0,1-.73,1.67,1.67,0,0,0,.37-1.06A1.62,1.62,0,0,0,81,88.35a2.39,2.39,0,0,0-1-.72,3.76,3.76,0,0,0-1.46-.26H75.76v4.08h2.77A4,4,0,0,0,80,91.19Z" transform="translate(-2.42 -6.07)"/><path class="b" d="M92.34,96.44h-1.1v-9H87.32v-.86h9v.86H92.34Z" transform="translate(-2.42 -6.07)"/><path class="b" d="M101.94,86.55H103v9.89h-1.1Z" transform="translate(-2.42 -6.07)"/><path class="b" d="M116.33,91.09v.81H111v3.7h5.58v.84h-6.68V86.55h6.68v.86H111v3.68Z" transform="translate(-2.42 -6.07)"/><path class="b" d="M124.14,87.8a1.58,1.58,0,0,0-.76,1.33,1.14,1.14,0,0,0,.43.94,3,3,0,0,0,1.09.51c.43.12,1,.24,1.81.37a18.68,18.68,0,0,1,2.2.46,3.57,3.57,0,0,1,1.45.78,2,2,0,0,1,.59,1.5,2.39,2.39,0,0,1-1.18,2.14,6.1,6.1,0,0,1-3.33.76,7.35,7.35,0,0,1-2.68-.43,6.19,6.19,0,0,1-1.8-1l.47-.75a6.43,6.43,0,0,0,1.73.92,6.83,6.83,0,0,0,2.31.36,4.68,4.68,0,0,0,2.51-.54,1.68,1.68,0,0,0,.83-1.44,1.24,1.24,0,0,0-.45-1,2.87,2.87,0,0,0-1.11-.53c-.43-.11-1-.23-1.81-.36a21.79,21.79,0,0,1-2.18-.48,3.45,3.45,0,0,1-1.42-.78,1.91,1.91,0,0,1-.59-1.48,2.19,2.19,0,0,1,.5-1.41,3.14,3.14,0,0,1,1.44-1,6.33,6.33,0,0,1,2.25-.35,5.92,5.92,0,0,1,2.43.48,6.35,6.35,0,0,1,1.66,1l-.47.73a5.81,5.81,0,0,0-3.64-1.36A4,4,0,0,0,124.14,87.8Z" transform="translate(-2.42 -6.07)"/><path class="b" d="M268.84,88.14a.84.84,0,1,0,0-1.68.84.84,0,1,0,0,1.68Z" transform="translate(-2.42 -6.07)"/><path class="b" d="M265.91,88.14a.82.82,0,0,0,.87-.84.83.83,0,0,0-.87-.84.84.84,0,1,0,0,1.68Z" transform="translate(-2.42 -6.07)"/><path class="b" d="M298.78,100.65a.88.88,0,0,0-.9.84.86.86,0,0,0,.91.84.84.84,0,0,0,.88-.84A.84.84,0,0,0,298.78,100.65Z" transform="translate(-2.42 -6.07)"/><path class="b" d="M299.66,90.3h-1.49v7H271V89.5h-1.5v.8H265.4a4.65,4.65,0,0,0-4.9,5v3.51h39.15Zm-30.2,7H262l0-2.4a3,3,0,0,1,3.17-3.12h4.36Z" transform="translate(-2.42 -6.07)"/><path class="b" d="M304.59,90.3v7.24a3.1,3.1,0,0,1-3.26,3.27v1.52a4.84,4.84,0,0,0,4.76-5.19V90.3Z" transform="translate(-2.42 -6.07)"/><path class="b" d="M295.85,100.65a.87.87,0,0,0-.9.84.86.86,0,0,0,.91.84.84.84,0,1,0,0-1.68Z" transform="translate(-2.42 -6.07)"/><path class="b" d="M342.47,88.43a.84.84,0,1,0,0-1.67.84.84,0,1,0,0,1.67Z" transform="translate(-2.42 -6.07)"/><path class="b" d="M339.54,88.43a.84.84,0,1,0,0-1.67.86.86,0,0,0-.9.83A.85.85,0,0,0,339.54,88.43Z" transform="translate(-2.42 -6.07)"/><path class="b" d="M363.86,86.4V97.29h-5.4l2.39-5.44a12.89,12.89,0,0,0-6.07-1.79,14.33,14.33,0,0,0-6.46,1.79l2.14,5.44h-5.36v-7h-5.55a4.64,4.64,0,0,0-4.89,5v2H310.48V86.41H309l0,12.38h56.38l0-12.38h-1.49ZM343.61,97.3h-7.53V94.9a3,3,0,0,1,3.16-3.12h4.37Zm8.36,0-1.83-4.6a9.39,9.39,0,0,1,8.95,0l-2.16,4.59Z" transform="translate(-2.42 -6.07)"/><polygon class="b" points="367.58 80.33 366.09 80.33 366.1 92.72 367.6 92.72 367.58 80.33"/></svg>